<svg width="1000" height="1000" viewBox="0 0 1000 1000" fill="none" xmlns="http://www.w3.org/2000/svg">
<path d="M466.797 500.586L201.172 234.961C182.812 216.602 182.812 186.914 201.172 168.75L245.312 124.609C263.672 106.25 293.359 106.25 311.523 124.609L499.805 312.891L688.086 124.609C706.445 106.25 736.133 106.25 754.297 124.609L798.828 168.555C817.188 186.914 817.188 216.602 798.828 234.766L533.203 500.391C514.844 518.945 485.156 518.945 466.797 500.586ZM533.203 875.586L798.828 609.961C817.188 591.602 817.188 561.914 798.828 543.75L754.687 499.609C736.328 481.25 706.641 481.25 688.477 499.609L500 687.695L311.719 499.414C293.359 481.055 263.672 481.055 245.508 499.414L201.172 543.555C182.812 561.914 182.812 591.602 201.172 609.766L466.797 875.391C485.156 893.945 514.844 893.945 533.203 875.586Z" fill="black" fill-opacity="0.2"/>
</svg>
