<svg width="400" height="280" viewBox="0 0 400 280" fill="none" xmlns="http://www.w3.org/2000/svg">
<path d="M60 100H70L137.987 15.0125C141.736 10.3287 146.49 6.54756 151.897 3.94895C157.304 1.35035 163.226 0.00075006 169.225 0H302.919C319.275 0 333.981 9.95625 340.056 25.1438L370 101.412C387.225 105.875 400 121.381 400 140V210C400 215.525 395.525 220 390 220H360C360 253.138 333.138 280 300 280C266.862 280 240 253.138 240 220H160C160 253.138 133.138 280 100 280C66.8625 280 40 253.138 40 220H10C4.475 220 0 215.525 0 210V160C0 126.862 26.8625 100 60 100ZM300 250C316.544 250 330 236.544 330 220C330 203.456 316.544 190 300 190C283.456 190 270 203.456 270 220C270 236.544 283.456 250 300 250ZM255 100H326.919L302.919 40H255V100ZM225 100V40H169.225L121.225 100H225ZM100 250C116.544 250 130 236.544 130 220C130 203.456 116.544 190 100 190C83.4563 190 70 203.456 70 220C70 236.544 83.4563 250 100 250Z" fill="black" fill-opacity="0.2"/>
</svg>
