<svg width="20" height="20" viewBox="0 0 20 20" fill="none" xmlns="http://www.w3.org/2000/svg">
<g clip-path="url(#clip0_395_182)">
<path d="M19.422 15.66C18.3563 14.7332 17.1779 13.9446 15.9148 13.3127C14.8663 12.8081 14.4731 12.8186 13.7339 13.3546C13.114 13.8028 12.713 14.2183 12 14.0623C9.4211 12.6913 7.31072 10.5809 5.9397 8.00205C5.78898 7.28383 6.20183 6.88803 6.64744 6.2681C7.18348 5.52367 7.1992 5.13835 6.68937 4.08724C6.0603 2.8218 5.27093 1.6426 4.34075 0.578716C3.57535 -0.186684 3.40367 -0.0202295 2.98165 0.130491C2.54802 0.310708 2.1317 0.530051 1.73787 0.785799C1.0959 1.15157 0.576157 1.69866 0.243766 2.35853C-0.0524329 2.99943 -0.397124 4.1934 1.35255 7.3048C2.64243 9.68848 4.27639 11.8692 6.20182 13.7766V13.7766C8.11031 15.7009 10.2908 17.3347 12.6736 18.6259C15.7877 20.3756 16.979 20.0322 17.6199 19.7347C18.282 19.4055 18.83 18.885 19.1927 18.2406C19.4484 17.8468 19.6677 17.4304 19.848 16.9968C20.021 16.5997 20.1927 16.4254 19.422 15.66Z" fill="wite" fill-opacity="1"/>
</g>
<defs>
<clipPath id="clip0_395_182">
<rect width="20" height="19.9987" fill="white" transform="translate(0 0.000732422)"/>
</clipPath>
</defs>
</svg>
