<svg width="1500" height="1334" viewBox="0 0 1500 1334" fill="none" xmlns="http://www.w3.org/2000/svg">
<path d="M750 0.333252C568.776 0.333252 421.875 147.234 421.875 328.458C421.875 474.969 636.328 742 718.49 838.927C735.13 858.562 764.896 858.562 781.51 838.927C863.672 742 1078.13 474.969 1078.13 328.458C1078.13 147.234 931.224 0.333252 750 0.333252ZM750 437.833C689.583 437.833 640.625 388.875 640.625 328.458C640.625 268.042 689.583 219.083 750 219.083C810.417 219.083 859.375 268.042 859.375 328.458C859.375 388.875 810.417 437.833 750 437.833ZM52.3958 562.703C36.9317 568.888 23.6753 579.565 14.3362 593.355C4.9971 607.145 0.00370367 623.418 0 640.073L0 1291.95C0 1321.43 29.7656 1341.58 57.1354 1330.65L416.667 1167V560.021C393.646 518.406 374.818 477.885 361.328 439.135L52.3958 562.703ZM750 936.974C713.359 936.974 678.698 920.88 654.922 892.807C603.724 832.391 549.271 763.588 500 693.016V1166.97L1000 1333.64V693.042C950.729 763.588 896.302 832.417 845.078 892.833C821.302 920.88 786.641 936.974 750 936.974ZM1442.86 420.021L1083.33 583.667V1333.67L1447.6 1187.96C1463.07 1181.78 1476.33 1171.11 1485.67 1157.31C1495.01 1143.52 1500 1127.25 1500 1110.59V458.719C1500 429.24 1470.23 409.083 1442.86 420.021Z" fill="white" fill-opacity="0.2"/>
</svg>
