<svg width="20" height="20" viewBox="0 0 20 20" fill="none" xmlns="http://www.w3.org/2000/svg">
<path d="M19.988 19.4946C19.6133 17.8386 17.472 17.0306 16.732 16.7706C15.8382 16.5455 14.9323 16.3714 14.0187 16.2493C13.5581 16.166 13.1263 15.9669 12.764 15.6706C12.6359 14.8208 12.6082 13.9589 12.6813 13.1026C12.91 12.7428 13.1084 12.3646 13.2746 11.9719C13.4659 11.3251 13.612 10.6657 13.712 9.99862C13.712 9.99862 14.1386 9.99861 14.2906 9.24928C14.4893 8.68526 14.6187 8.09919 14.676 7.50395C14.6453 6.90528 14.316 6.92128 14.316 6.92128C14.5652 6.05478 14.6847 5.15614 14.6706 4.25462C14.5533 3.09857 14.0109 2.02723 13.1488 1.24819C12.2866 0.469144 11.166 0.0378418 10.004 0.0378418C8.84199 0.0378418 7.72135 0.469144 6.85919 1.24819C5.99702 2.02723 5.45471 3.09857 5.33732 4.25462C5.32704 5.15556 5.44466 6.05339 5.68665 6.92128C5.68665 6.92128 5.35864 6.90528 5.32664 7.50528C5.38389 8.10052 5.51329 8.68661 5.71198 9.25062C5.85731 10.0013 6.29064 10.0013 6.29064 10.0013C6.39059 10.6684 6.53673 11.3278 6.72798 11.9746C6.89425 12.3672 7.09271 12.7454 7.32131 13.1053C7.39401 13.9616 7.36581 14.8235 7.23731 15.6733C6.87498 15.9695 6.44321 16.1687 5.98265 16.252C5.06904 16.3741 4.16312 16.5481 3.26931 16.7733C2.52931 17.04 0.389311 17.8399 0.0133106 19.4973C-0.000160066 19.5585 0.00039518 19.622 0.0149179 19.683C0.0294406 19.744 0.0575619 19.8009 0.0971831 19.8495C0.136804 19.8981 0.186896 19.9371 0.243718 19.9636C0.30054 19.9902 0.362622 20.0035 0.425318 20.0026H19.588C19.6499 20.0018 19.7109 19.9871 19.7665 19.9596C19.8221 19.9322 19.8708 19.8927 19.9091 19.844C19.9475 19.7953 19.9744 19.7387 19.9881 19.6782C20.0017 19.6178 20.0017 19.5551 19.988 19.4946V19.4946Z" fill="black" fill-opacity="0.6"/>
</svg>
