<svg xmlns="http://www.w3.org/2000/svg" xmlns:xlink="http://www.w3.org/1999/xlink" version="1.1" id="Layer_1" x="0px" y="0px" viewBox="0 0 475.2 475.2" style="enable-background:new 0 0 475.2 475.2;" xml:space="preserve">
<g transform="translate(0 -540.36)">
	<g>
		<g>
			<path d="M241.7,731.76c-0.1,0-0.2,0-0.2,0h-32.6c-4.1,0-7.5,3.4-7.5,7.5v83.2H191c-4.1,0-7.5,3.4-7.5,7.5s3.4,7.5,7.5,7.5h10.4     v12.9H191c-4.1,0-7.5,3.4-7.5,7.5s3.4,7.5,7.5,7.5h10.4v39c0,4.1,3.4,7.5,7.5,7.5c4.1,0,7.5-3.4,7.5-7.5v-39H264     c4.1,0,7.5-3.4,7.5-7.5s-3.4-7.5-7.5-7.5h-47.6v-12.9h25.1c27.7,0,50.2-23.5,50.2-52.5C291.7,756.06,269.8,732.66,241.7,731.76z      M241.5,822.46h-25.1v-75.7h25c19.8,0.7,35.3,17.5,35.3,38.2S260.9,822.46,241.5,822.46z" fill="#1a512e"/>
			<path d="M442.9,803.96L442.9,803.96l-145.8-145.6c10.6-14.1,15.8-31.3,14.6-49c-1.3-18.8-9.5-36.3-23.3-49.1     c-13.8-12.9-32-19.9-51.2-19.9c-18.9,0-36.9,7.1-50.6,20.1c-13.7,13-21.9,30.6-23.2,49.8c-0.3,4.1,2.9,7.7,7,8     c4.1,0.3,7.7-2.9,8-7c2.1-31.8,27.4-55.8,58.8-55.8c31.9,0,57.5,23.7,59.6,55.1c0.9,13.8-3,26.8-10.3,37.3l-43.2-43.1     c-2.9-2.9-7.7-2.9-10.6,0L32.3,804.16c-1.4,1.4-2.2,3.3-2.2,5.3s0.8,3.9,2.2,5.3l200.4,198.6c1.5,1.4,3.4,2.2,5.3,2.2     c1.9,0,3.8-0.7,5.3-2.2l199.6-198.6c1.4-1.4,2.2-3.3,2.2-5.3C445.1,807.26,444.3,805.36,442.9,803.96z M238,997.26L238,997.26     l-189.7-188L238,620.46l38.3,38.3c-3,2.6-6.4,4.9-9.9,6.8c-5.1-10.8-15.9-18.2-28.4-18.2c-18.2,0-32.4,14.2-32.4,32.4     c0,17.4,14.5,31.6,32.4,31.6c17.1,0,31-13.6,31.6-30.6c6.3-2.9,12.1-6.7,17.3-11.4L427,809.26L238,997.26z M238.3,680.56     c0.4,3.8,3.7,6.7,7.4,6.7c0.3,0,0.6,0,0.8,0c2.2-0.2,4.5-0.6,6.7-1.1c-2.6,5.9-8.5,10.2-15.3,10.2c-9.8,0-17.4-7.3-17.4-16.6     c0-9.9,7.5-17.4,17.4-17.4c6.2,0,11.6,3.4,14.4,8.6c-2.4,0.6-4.9,1-7.4,1.3C240.8,672.76,237.9,676.46,238.3,680.56z" fill="#1a512e"/>
		</g>
	</g>
</g>
<g>
</g>
<g>
</g>
<g>
</g>
<g>
</g>
<g>
</g>
<g>
</g>
<g>
</g>
<g>
</g>
<g>
</g>
<g>
</g>
<g>
</g>
<g>
</g>
<g>
</g>
<g>
</g>
<g>
</g>
</svg>