<svg width="400" height="320" viewBox="0 0 400 320" fill="none" xmlns="http://www.w3.org/2000/svg">
<path d="M390 220H380V152.437C380 144.5 376.813 136.875 371.188 131.25L308.75 68.8125C303.125 63.1875 295.5 60 287.563 60H260V30C260 13.4375 246.562 0 230 0H30C13.4375 0 0 13.4375 0 30V230C0 246.562 13.4375 260 30 260H40C40 293.125 66.875 320 100 320C133.125 320 160 293.125 160 260H240C240 293.125 266.875 320 300 320C333.125 320 360 293.125 360 260H390C395.5 260 400 255.5 400 250V230C400 224.5 395.5 220 390 220ZM100 290C83.4375 290 70 276.562 70 260C70 243.438 83.4375 230 100 230C116.562 230 130 243.438 130 260C130 276.562 116.562 290 100 290ZM300 290C283.438 290 270 276.562 270 260C270 243.438 283.438 230 300 230C316.562 230 330 243.438 330 260C330 276.562 316.562 290 300 290ZM350 160H260V90H287.563L350 152.437V160Z" fill="black" fill-opacity="0.2"/>
</svg>
