<svg id="visual" viewBox="0 0 1980 1000" width="1980" height="1000" xmlns="http://www.w3.org/2000/svg" xmlns:xlink="http://www.w3.org/1999/xlink" version="1.1"><rect x="0" y="0" width="1980" height="1000" fill="#1A512E"></rect><defs><linearGradient id="grad1_0" x1="49.5%" y1="100%" x2="100%" y2="0%"><stop offset="10.400000000000002%" stop-color="#389c76" stop-opacity="1"></stop><stop offset="89.60000000000001%" stop-color="#389c76" stop-opacity="1"></stop></linearGradient></defs><defs><linearGradient id="grad1_1" x1="49.5%" y1="100%" x2="100%" y2="0%"><stop offset="10.400000000000002%" stop-color="#389c76" stop-opacity="1"></stop><stop offset="89.60000000000001%" stop-color="#1a512e" stop-opacity="1"></stop></linearGradient></defs><defs><linearGradient id="grad2_0" x1="0%" y1="100%" x2="50.5%" y2="0%"><stop offset="10.400000000000002%" stop-color="#389c76" stop-opacity="1"></stop><stop offset="89.60000000000001%" stop-color="#389c76" stop-opacity="1"></stop></linearGradient></defs><defs><linearGradient id="grad2_1" x1="0%" y1="100%" x2="50.5%" y2="0%"><stop offset="10.400000000000002%" stop-color="#1a512e" stop-opacity="1"></stop><stop offset="89.60000000000001%" stop-color="#389c76" stop-opacity="1"></stop></linearGradient></defs><g transform="translate(1980, 1000)"><path d="M-800 0C-779.5 -140.6 -758.9 -281.2 -692.8 -400C-626.7 -518.8 -515.1 -615.9 -392 -679C-268.9 -742 -134.5 -771 0 -800L0 0Z" fill="#2a7550"></path><path d="M-400 0C-389.7 -70.3 -379.5 -140.6 -346.4 -200C-313.4 -259.4 -257.5 -308 -196 -339.5C-134.5 -371 -67.2 -385.5 0 -400L0 0Z" fill="#389c76"></path></g><g transform="translate(0, 0)"><path d="M800 0C782.6 146 765.2 292 692.8 400C620.5 508 493.1 577.9 368.5 638.3C243.9 698.6 121.9 749.3 0 800L0 0Z" fill="#2a7550"></path><path d="M400 0C391.3 73 382.6 146 346.4 200C310.2 254 246.6 289 184.3 319.1C121.9 349.3 61 374.6 0 400L0 0Z" fill="#389c76"></path></g></svg>