<svg width="991" height="1366" viewBox="0 0 991 1366" fill="none" xmlns="http://www.w3.org/2000/svg">
<g clip-path="url(#clip0_395_12)">
<path d="M672.008 467.027C655.041 461.65 642.695 446.828 642.322 428.933C642.22 418.1 642.536 407.287 643.519 396.587L644.711 384.973C646.036 374.121 647.952 363.211 650.363 352.491C654.33 335.126 669.553 323.217 687.257 321.492L742.653 315.916C754.27 292.682 769.848 270.969 788.721 252.509L777.053 198.183C773.215 180.804 779.905 162.638 795.167 153.585C806.128 146.857 817.471 140.986 829.29 135.724C841.109 130.462 853.062 125.961 865.148 122.222C882.088 116.938 900.141 124.293 910.412 138.603L943.053 183.796C969.648 182.218 995.96 185.075 1021 191.989L1062.46 154.647C1075.59 142.645 1094.62 139.301 1110.18 147.972C1119.76 153.353 1129.15 159.23 1138.27 165.43L1147.45 172.221C1156.06 178.65 1164.31 185.65 1172.37 193.146C1185.34 205.226 1188.1 224.319 1180.81 240.697L1157.89 291.542C1164.88 302.18 1171.25 313.713 1176.66 325.874C1182.08 338.036 1186.39 350.484 1189.69 362.97L1242.82 379.955C1259.78 385.332 1272.13 400.154 1272.5 418.049C1272.6 428.882 1272.29 439.695 1271.38 450.567L1270.21 461.762C1268.96 472.785 1266.97 483.524 1264.38 494.32C1260.42 511.685 1245.2 523.594 1227.49 525.319L1172.09 530.895C1160.48 554.128 1144.9 575.842 1126.03 594.302L1137.77 648.799C1141.61 666.178 1134.92 684.344 1119.66 693.397C1108.79 699.877 1097.45 705.748 1085.63 711.01C1073.81 716.272 1061.86 720.773 1049.77 724.513C1032.83 729.797 1014.78 722.441 1004.51 708.132L971.866 662.938C945.271 664.517 918.959 661.659 893.92 654.746L852.709 692.182C839.581 704.185 820.545 707.529 804.986 698.858C795.406 693.476 786.093 687.771 777.065 681.323L767.637 674.438C759.027 668.009 750.78 661.008 742.798 653.684C729.825 641.603 727.071 622.51 734.352 606.133L757.278 555.287C750.208 544.478 743.842 532.946 738.427 520.784C733.013 508.622 728.702 496.175 725.4 483.688L672.274 466.703L672.008 467.027ZM875.193 460.097C895.403 505.489 948.627 525.92 994.018 505.71C1039.41 485.5 1059.84 432.277 1039.63 386.885C1019.42 341.493 966.198 321.062 920.806 341.272C875.414 361.482 854.983 414.706 875.193 460.097ZM614.45 1242.21C609.073 1259.17 594.251 1271.52 576.356 1271.89C565.523 1271.99 554.71 1271.68 544.01 1270.69L532.396 1269.5C521.544 1268.18 510.634 1266.26 499.914 1263.85C482.549 1259.88 470.641 1244.66 468.916 1226.96L463.339 1171.56C440.106 1159.94 418.392 1144.37 399.932 1125.49L345.435 1137.24C328.056 1141.07 309.89 1134.38 300.837 1119.12C294.357 1108.26 288.486 1096.91 283.224 1085.09C277.962 1073.28 273.461 1061.32 269.722 1049.24C264.437 1032.3 271.793 1014.24 286.102 1003.97L331.219 971.16C329.641 944.565 332.498 918.253 339.412 893.214L301.976 852.003C289.973 838.875 286.629 819.839 295.3 804.28C300.682 794.7 306.558 785.311 312.758 776.188L319.549 767.007C325.978 758.398 332.978 750.15 340.474 742.092C352.555 729.119 371.648 726.365 388.025 733.646L438.871 756.572C449.679 749.502 461.212 743.136 473.374 737.721C485.535 732.307 497.983 727.996 510.47 724.694L527.455 671.568C532.831 654.602 547.654 642.256 565.549 641.882C576.381 641.78 587.195 642.096 598.066 643.003L609.261 644.176C620.285 645.425 631.023 647.417 641.819 649.999C659.184 653.967 671.093 669.189 672.818 686.893L678.394 742.289C701.628 753.906 723.341 769.484 741.801 788.357L796.222 776.442C813.601 772.604 831.767 779.294 840.82 794.556C847.3 805.422 853.171 816.765 858.433 828.584C863.696 840.403 868.196 852.356 871.936 864.442C877.22 881.382 869.864 899.435 855.555 909.706L810.361 942.347C811.94 968.942 809.083 995.254 802.169 1020.29L839.605 1061.5C851.608 1074.63 854.952 1093.67 846.281 1109.23C840.899 1118.81 835.194 1128.12 828.746 1137.15L821.861 1146.58C815.432 1155.19 808.431 1163.43 801.107 1171.42C789.026 1184.39 769.933 1187.14 753.556 1179.86L702.71 1156.93C691.901 1164 680.369 1170.37 668.207 1175.79C656.046 1181.2 643.598 1185.51 631.111 1188.81L614.126 1241.94L614.45 1242.21ZM607.521 1039.02C652.912 1018.81 673.343 965.586 653.133 920.195C632.924 874.803 579.7 854.372 534.308 874.582C488.916 894.792 468.485 948.015 488.695 993.407C508.905 1038.8 562.129 1059.23 607.521 1039.02Z" fill="black" fill-opacity="0.2"/>
</g>
<defs>
<clipPath id="clip0_395_12">
<rect width="1200" height="960" fill="white" transform="matrix(-0.913546 0.406737 0.406737 0.913546 1097.25 0)"/>
</clipPath>
</defs>
</svg>
