<svg width="723" height="1152" viewBox="0 0 723 1152" fill="none" xmlns="http://www.w3.org/2000/svg">
<path d="M404.008 347.027C387.041 341.65 374.695 326.828 374.322 308.933C374.22 298.1 374.536 287.287 375.519 276.587L376.711 264.973C378.036 254.121 379.952 243.211 382.363 232.491C386.33 215.126 401.553 203.217 419.257 201.492L474.653 195.916C486.27 172.682 501.848 150.969 520.721 132.509L509.053 78.1832C505.215 60.8043 511.905 42.6379 527.167 33.585C538.128 26.8575 549.471 20.9864 561.29 15.7243C573.109 10.4621 585.062 5.96139 597.148 2.22208C614.088 -3.06247 632.141 4.29332 642.412 18.603L675.053 63.7962C701.648 62.2177 727.96 65.0752 752.999 71.9886L794.458 34.6474C807.586 22.6451 826.621 19.301 842.181 27.972C851.76 33.3534 861.15 39.2299 870.273 45.4303L879.454 52.2207C888.063 58.6499 896.311 65.6504 904.369 73.146C917.341 85.2264 920.095 104.319 912.815 120.697L889.888 171.542C896.882 182.18 903.248 193.713 908.663 205.874C914.078 218.036 918.388 230.484 921.69 242.97L974.816 259.955C991.783 265.332 1004.13 280.154 1004.5 298.049C1004.6 308.882 1004.29 319.695 1003.38 330.567L1002.21 341.762C1000.96 352.785 998.967 363.524 996.385 374.32C992.417 391.685 977.195 403.594 959.491 405.319L904.095 410.895C892.478 434.128 876.9 455.842 858.027 474.302L869.771 528.799C873.609 546.178 866.919 564.344 851.657 573.397C840.791 579.877 829.448 585.748 817.629 591.01C805.81 596.272 793.857 600.773 781.771 604.513C764.831 609.797 746.778 602.441 736.507 588.132L703.866 542.938C677.271 544.517 650.959 541.659 625.92 534.746L584.709 572.182C571.581 584.185 552.545 587.529 536.986 578.858C527.406 573.476 518.093 567.771 509.065 561.323L499.637 554.438C491.028 548.009 482.78 541.008 474.798 533.684C461.825 521.603 459.071 502.51 466.352 486.133L489.278 435.287C482.208 424.478 475.842 412.946 470.427 400.784C465.013 388.622 460.702 376.175 457.4 363.688L404.274 346.703L404.008 347.027ZM607.193 340.097C627.403 385.489 680.627 405.92 726.018 385.71C771.41 365.5 791.841 312.277 771.631 266.885C751.421 221.493 698.198 201.062 652.806 221.272C607.414 241.482 586.983 294.706 607.193 340.097ZM346.45 1122.21C341.073 1139.17 326.251 1151.52 308.356 1151.89C297.523 1151.99 286.71 1151.68 276.01 1150.69L264.396 1149.5C253.544 1148.18 242.634 1146.26 231.914 1143.85C214.549 1139.88 202.64 1124.66 200.916 1106.96L195.339 1051.56C172.106 1039.94 150.392 1024.37 131.932 1005.49L77.4351 1017.24C60.0561 1021.07 41.8897 1014.38 32.8368 999.122C26.3569 988.256 20.4858 976.913 15.2236 965.094C9.96149 953.275 5.46075 941.323 1.72144 929.236C-3.56308 912.296 3.79271 894.243 18.1024 883.973L63.2194 851.16C61.6409 824.565 64.4983 798.253 71.4117 773.214L33.9755 732.003C21.9732 718.875 18.6291 699.839 27.3001 684.28C32.6815 674.7 38.5581 665.311 44.7584 656.188L51.5488 647.007C57.978 638.398 64.9785 630.15 72.474 622.092C84.5545 609.119 103.648 606.365 120.025 613.646L170.871 636.572C181.679 629.502 193.212 623.136 205.374 617.721C217.535 612.307 229.983 607.996 242.47 604.694L259.455 551.568C264.831 534.602 279.654 522.256 297.549 521.882C308.381 521.78 319.195 522.096 330.066 523.003L341.261 524.176C352.285 525.425 363.023 527.417 373.819 529.999C391.184 533.967 403.093 549.189 404.818 566.893L410.394 622.289C433.628 633.906 455.341 649.484 473.801 668.357L528.222 656.442C545.601 652.604 563.767 659.294 572.82 674.556C579.3 685.422 585.171 696.765 590.433 708.584C595.696 720.403 600.196 732.356 603.936 744.442C609.22 761.382 601.864 779.435 587.555 789.706L542.361 822.347C543.94 848.942 541.083 875.254 534.169 900.293L571.605 941.504C583.608 954.632 586.952 973.668 578.281 989.227C572.899 998.807 567.194 1008.12 560.746 1017.15L553.861 1026.58C547.432 1035.19 540.431 1043.43 533.107 1051.42C521.026 1064.39 501.933 1067.14 485.556 1059.86L434.71 1036.93C423.901 1044 412.369 1050.37 400.207 1055.79C388.046 1061.2 375.598 1065.51 363.111 1068.81L346.126 1121.94L346.45 1122.21ZM339.521 919.02C384.912 898.81 405.343 845.586 385.133 800.195C364.924 754.803 311.7 734.372 266.308 754.582C220.916 774.792 200.485 828.015 220.695 873.407C240.905 918.799 294.129 939.23 339.521 919.02Z" fill="black" fill-opacity="0.2"/>
</svg>
