<svg width="18" height="18" viewBox="0 0 18 18" fill="none" xmlns="http://www.w3.org/2000/svg">
<path d="M0.679669 12.5818H10.9273C10.9932 12.5818 11.0583 12.5689 11.1192 12.5437C11.18 12.5186 11.2353 12.4817 11.2818 12.4351C11.3284 12.3886 11.3653 12.3333 11.3905 12.2725C11.4156 12.2116 11.4285 12.1464 11.4285 12.0806V10.583C11.4285 10.5171 11.4156 10.4519 11.3905 10.3911C11.3653 10.3303 11.3284 10.275 11.2818 10.2285C11.2353 10.1819 11.18 10.145 11.1192 10.1198C11.0583 10.0947 10.9932 10.0817 10.9273 10.0818H0.679669C0.61384 10.0817 0.548647 10.0947 0.487818 10.1198C0.42699 10.145 0.371721 10.1819 0.325173 10.2285C0.278624 10.275 0.24171 10.3303 0.216542 10.3911C0.191374 10.4519 0.178446 10.5171 0.178497 10.583V12.0806C0.178446 12.1464 0.191374 12.2116 0.216542 12.2725C0.24171 12.3333 0.278624 12.3886 0.325173 12.4351C0.371721 12.4817 0.42699 12.5186 0.487818 12.5437C0.548647 12.5689 0.61384 12.5818 0.679669 12.5818ZM0.679669 2.58179H10.9273C10.9932 2.58184 11.0583 2.56891 11.1192 2.54374C11.18 2.51857 11.2353 2.48166 11.2818 2.43511C11.3284 2.38856 11.3653 2.33329 11.3905 2.27247C11.4156 2.21164 11.4285 2.14644 11.4285 2.08062V0.582959C11.4285 0.51713 11.4156 0.451936 11.3905 0.391108C11.3653 0.33028 11.3284 0.275011 11.2818 0.228463C11.2353 0.181914 11.18 0.145 11.1192 0.119832C11.0583 0.094664 10.9932 0.0817359 10.9273 0.0817873H0.679669C0.61384 0.0817359 0.548647 0.094664 0.487818 0.119832C0.42699 0.145 0.371721 0.181914 0.325173 0.228463C0.278624 0.275011 0.24171 0.33028 0.216542 0.391108C0.191374 0.451936 0.178446 0.51713 0.178497 0.582959V2.08062C0.178446 2.14644 0.191374 2.21164 0.216542 2.27247C0.24171 2.33329 0.278624 2.38856 0.325173 2.43511C0.371721 2.48166 0.42699 2.51857 0.487818 2.54374C0.548647 2.56891 0.61384 2.58184 0.679669 2.58179ZM17.0535 5.08179H0.803497C0.637737 5.08179 0.478766 5.14764 0.361556 5.26485C0.244346 5.38206 0.178497 5.54103 0.178497 5.70679V6.95679C0.178497 7.12255 0.244346 7.28152 0.361556 7.39873C0.478766 7.51594 0.637737 7.58179 0.803497 7.58179H17.0535C17.2193 7.58179 17.3782 7.51594 17.4954 7.39873C17.6126 7.28152 17.6785 7.12255 17.6785 6.95679V5.70679C17.6785 5.54103 17.6126 5.38206 17.4954 5.26485C17.3782 5.14764 17.2193 5.08179 17.0535 5.08179ZM17.0535 15.0818H0.803497C0.637737 15.0818 0.478766 15.1476 0.361556 15.2648C0.244346 15.3821 0.178497 15.541 0.178497 15.7068V16.9568C0.178497 17.1225 0.244346 17.2815 0.361556 17.3987C0.478766 17.5159 0.637737 17.5818 0.803497 17.5818H17.0535C17.2193 17.5818 17.3782 17.5159 17.4954 17.3987C17.6126 17.2815 17.6785 17.1225 17.6785 16.9568V15.7068C17.6785 15.541 17.6126 15.3821 17.4954 15.2648C17.3782 15.1476 17.2193 15.0818 17.0535 15.0818Z" fill="black" fill-opacity="0.6"/>
</svg>
