<svg width="100" height="102" viewBox="0 0 100 102" fill="none" xmlns="http://www.w3.org/2000/svg">
<g clip-path="url(#clip0_456_4)">
<path d="M94.8788 34.7255L67.571 30.693L55.3676 5.64092C54.2706 3.40234 52.1307 2.27075 49.9908 2.27075C47.8639 2.27075 45.7389 3.3872 44.6382 5.64092L32.4311 30.6911L5.12137 34.7198C0.223979 35.4388 -1.73871 41.5491 1.81167 45.0498L21.5673 64.5404L16.8919 92.0695C16.2277 96.0017 19.3229 99.1561 22.7893 99.1561C23.7091 99.1561 24.6549 98.9347 25.5635 98.4465L49.9945 85.4502L74.4236 98.4503C75.3303 98.9328 76.2743 99.1523 77.1904 99.1523C80.6605 99.1523 83.7613 96.0092 83.0971 92.0752L78.4273 64.5442L98.1867 45.0574C101.739 41.5566 99.7762 35.4445 94.8788 34.7255V34.7255ZM72.1661 58.0385L68.7855 61.3727L69.584 66.0807L73.2258 87.5488L54.1717 77.408L49.9964 75.1864L50.002 15.1648L59.5225 34.7103L61.6083 38.9926L66.2743 39.6814L87.5859 42.8283L72.1661 58.0385V58.0385Z" fill="black" fill-opacity="0.2"/>
</g>
<defs>
<clipPath id="clip0_456_4">
<rect width="100" height="101.427" fill="white"/>
</clipPath>
</defs>
</svg>
