<svg width="841" height="815" viewBox="0 0 841 815" fill="none" xmlns="http://www.w3.org/2000/svg">
<path d="M797.93 273.041L568.271 239.128L465.641 28.4402C456.415 9.61372 438.418 0.0970459 420.421 0.0970459C402.534 0.0970459 384.663 9.48641 375.406 28.4402L272.744 239.112L43.0698 272.993C1.88274 279.041 -14.6235 330.428 15.2352 359.869L181.38 523.785L142.06 755.304C136.474 788.374 162.504 814.903 191.657 814.903C199.392 814.903 207.347 813.041 214.988 808.935L420.453 699.637L625.902 808.967C633.527 813.025 641.466 814.871 649.17 814.871C678.354 814.871 704.431 788.438 698.846 755.352L659.573 523.817L825.749 359.933C855.623 330.491 839.117 279.088 797.93 273.041V273.041ZM606.916 469.104L578.485 497.145L585.201 536.739L615.828 717.285L455.583 632.001L420.469 613.318L420.516 108.536L500.583 272.914L518.125 308.928L557.366 314.72L736.597 341.186L606.916 469.104V469.104Z" fill="#1A512E" fill-opacity="0.2"/>
</svg>
