<svg width="35" height="35" viewBox="0 0 35 35" fill="none" xmlns="http://www.w3.org/2000/svg">
<g clip-path="url(#clip0_342_216)">
<path d="M4.375 4.375C4.375 3.79484 4.60547 3.23844 5.0157 2.8282C5.42594 2.41797 5.98234 2.1875 6.5625 2.1875H16.5944C17.1745 2.18762 17.7308 2.41817 18.1409 2.82844L33.4534 18.1409C33.8635 18.5512 34.0939 19.1075 34.0939 19.6875C34.0939 20.2675 33.8635 20.8238 33.4534 21.2341L23.4216 31.2659C23.0113 31.676 22.455 31.9064 21.875 31.9064C21.295 31.9064 20.7387 31.676 20.3284 31.2659L5.01594 15.9534C4.60567 15.5433 4.37512 14.987 4.375 14.4069V4.375ZM12.0313 13.125C12.9015 13.125 13.7361 12.7793 14.3514 12.1639C14.9668 11.5486 15.3125 10.714 15.3125 9.84375C15.3125 8.97351 14.9668 8.13891 14.3514 7.52356C13.7361 6.9082 12.9015 6.5625 12.0313 6.5625C11.161 6.5625 10.3264 6.9082 9.71106 7.52356C9.0957 8.13891 8.75 8.97351 8.75 9.84375C8.75 10.714 9.0957 11.5486 9.71106 12.1639C10.3264 12.7793 11.161 13.125 12.0313 13.125Z" fill="white"/>
<path d="M2.82844 17.0472C2.41817 16.637 2.18762 16.0807 2.1875 15.5006V4.375C1.60734 4.375 1.05094 4.60547 0.640704 5.0157C0.230468 5.42594 0 5.98234 0 6.5625L0 16.5944C0.000123894 17.1745 0.230673 17.7308 0.640938 18.1409L15.9534 33.4534C16.3637 33.8635 16.92 34.0939 17.5 34.0939C18.08 34.0939 18.6363 33.8635 19.0466 33.4534L19.1406 33.3594L2.82844 17.0472Z" fill="white"/>
</g>
<defs>
<clipPath id="clip0_342_216">
<rect width="35" height="35" rx="10" fill="white"/>
</clipPath>
</defs>
</svg>
