<svg id="visual" viewBox="0 0 900 600" width="900" height="600" xmlns="http://www.w3.org/2000/svg" xmlns:xlink="http://www.w3.org/1999/xlink" version="1.1"><path d="M0 491L29 491L29 552L58 552L58 548L87 548L87 480L116 480L116 542L145 542L145 497L174 497L174 516L203 516L203 495L232 495L232 514L261 514L261 537L290 537L290 509L319 509L319 548L348 548L348 544L377 544L377 470L406 470L406 553L435 553L435 504L465 504L465 486L494 486L494 519L523 519L523 526L552 526L552 553L581 553L581 529L610 529L610 472L639 472L639 497L668 497L668 545L697 545L697 494L726 494L726 528L755 528L755 492L784 492L784 535L813 535L813 528L842 528L842 552L871 552L871 508L900 508L900 525L900 601L900 601L871 601L871 601L842 601L842 601L813 601L813 601L784 601L784 601L755 601L755 601L726 601L726 601L697 601L697 601L668 601L668 601L639 601L639 601L610 601L610 601L581 601L581 601L552 601L552 601L523 601L523 601L494 601L494 601L465 601L465 601L435 601L435 601L406 601L406 601L377 601L377 601L348 601L348 601L319 601L319 601L290 601L290 601L261 601L261 601L232 601L232 601L203 601L203 601L174 601L174 601L145 601L145 601L116 601L116 601L87 601L87 601L58 601L58 601L29 601L29 601L0 601Z" fill="#1A512E" stroke-linecap="square" stroke-linejoin="miter"></path></svg>