<?xml version="1.0" standalone="no"?>
<!DOCTYPE svg PUBLIC "-//W3C//DTD SVG 20010904//EN"
 "http://www.w3.org/TR/2001/REC-SVG-20010904/DTD/svg10.dtd">
<svg version="1.0" xmlns="http://www.w3.org/2000/svg"
 width="2048.000000pt" height="2048.000000pt" viewBox="0 0 2048.000000 2048.000000"
 preserveAspectRatio="xMidYMid meet">
<metadata>
Created by potrace 1.14, written by Peter Selinger 2001-2017
</metadata>
<g transform="translate(0.000000,2048.000000) scale(0.100000,-0.100000)"
fill="#000000" stroke="none">
<path d="M15958 19095 c-2 -2 -102 -6 -223 -10 -121 -3 -249 -8 -285 -10 -36
-2 -117 -6 -180 -10 -63 -3 -137 -8 -165 -10 -27 -2 -90 -7 -140 -10 -127 -9
-190 -14 -265 -21 -36 -3 -87 -7 -115 -9 -27 -2 -75 -7 -105 -10 -30 -3 -75
-8 -100 -10 -89 -9 -155 -16 -180 -20 -14 -2 -55 -6 -92 -10 -37 -3 -75 -7
-85 -9 -10 -2 -45 -7 -78 -10 -33 -4 -91 -11 -130 -16 -38 -6 -90 -12 -115
-15 -25 -3 -72 -10 -105 -15 -33 -5 -82 -12 -110 -15 -70 -10 -78 -11 -190
-29 -55 -9 -111 -19 -125 -21 -14 -2 -43 -6 -65 -10 -23 -3 -52 -8 -65 -10
-14 -3 -65 -12 -115 -21 -81 -14 -413 -75 -475 -88 -111 -23 -369 -78 -425
-91 -39 -9 -81 -19 -95 -21 -129 -25 -828 -208 -1070 -281 -47 -14 -137 -41
-200 -60 -196 -59 -717 -234 -830 -278 -19 -7 -69 -26 -110 -41 -41 -14 -88
-32 -105 -39 -16 -7 -57 -22 -90 -35 -33 -12 -76 -29 -95 -37 -55 -23 -69 -29
-170 -68 -52 -21 -113 -46 -135 -56 -22 -10 -69 -30 -105 -45 -36 -15 -81 -34
-100 -42 -19 -9 -37 -16 -40 -17 -3 -1 -26 -11 -52 -23 -27 -12 -67 -30 -90
-41 -70 -31 -213 -99 -378 -179 -85 -42 -157 -76 -160 -77 -3 0 -21 -9 -40
-19 -19 -11 -84 -45 -145 -76 -221 -115 -353 -188 -560 -308 -719 -419 -1382
-900 -1939 -1406 -283 -257 -605 -588 -801 -821 -32 -38 -61 -72 -65 -75 -3
-3 -58 -70 -121 -150 -261 -329 -437 -584 -643 -933 -178 -302 -381 -733 -500
-1062 -26 -71 -50 -137 -53 -145 -4 -8 -7 -17 -8 -20 0 -3 -10 -34 -22 -70
-68 -207 -151 -525 -178 -680 -3 -19 -10 -53 -15 -75 -5 -22 -12 -60 -15 -85
-4 -24 -8 -47 -10 -50 -2 -3 -6 -34 -10 -70 -3 -36 -8 -72 -10 -80 -5 -18 -12
-75 -20 -150 -3 -30 -8 -68 -10 -85 -27 -220 -27 -994 0 -1134 2 -11 6 -48 10
-83 3 -35 8 -74 10 -88 3 -14 7 -45 10 -70 3 -25 7 -58 10 -75 3 -16 7 -41 9
-55 24 -151 61 -322 121 -570 36 -148 140 -464 222 -675 140 -363 370 -821
567 -1130 25 -38 59 -94 76 -123 17 -28 37 -58 43 -65 7 -6 34 -46 61 -87 58
-88 185 -264 268 -370 33 -41 71 -91 86 -110 29 -37 239 -288 256 -306 6 -6
44 -49 85 -95 95 -107 528 -539 645 -644 49 -44 112 -100 140 -125 28 -25 85
-74 126 -109 41 -34 84 -70 95 -80 11 -10 74 -60 140 -112 692 -547 1384 -984
2205 -1392 146 -73 294 -145 330 -161 36 -16 106 -49 155 -72 97 -45 583 -254
592 -254 3 0 19 -6 36 -14 120 -54 543 -210 872 -322 792 -269 1721 -508 2580
-663 33 -6 72 -13 86 -16 14 -3 95 -16 180 -30 208 -35 205 -34 238 -40 80
-14 417 -62 491 -70 25 -3 59 -7 75 -10 17 -2 53 -6 80 -10 28 -3 64 -8 80
-10 17 -2 57 -7 90 -10 33 -3 74 -7 90 -10 17 -2 57 -6 90 -10 33 -3 78 -7
100 -10 22 -2 66 -7 98 -10 31 -3 81 -7 110 -10 58 -6 124 -11 242 -20 44 -3
103 -8 130 -10 134 -11 257 -18 495 -30 260 -13 318 -15 715 -19 235 -3 425
-1 460 5 402 64 706 353 799 759 15 67 16 312 2 375 -31 133 -81 250 -150 353
-160 238 -435 398 -716 417 -41 3 -232 7 -425 11 -363 6 -410 7 -635 18 -155
8 -235 13 -340 21 -41 3 -104 8 -140 11 -36 2 -94 7 -130 10 -36 3 -85 7 -110
9 -117 10 -168 15 -205 19 -22 3 -69 7 -105 11 -36 3 -81 7 -100 10 -19 3 -55
7 -80 10 -114 13 -266 32 -310 39 -14 2 -50 7 -80 11 -30 4 -64 9 -75 11 -11
1 -42 6 -70 9 -74 10 -97 13 -130 19 -16 3 -48 8 -70 11 -22 4 -47 8 -55 10
-8 2 -35 7 -60 10 -52 7 -68 10 -215 36 -180 31 -338 61 -450 85 -38 8 -81 17
-95 19 -31 6 -193 41 -275 60 -33 8 -109 25 -170 39 -60 14 -126 30 -145 36
-19 6 -62 16 -95 24 -78 18 -387 100 -490 131 -463 138 -773 240 -1109 365
-205 76 -432 165 -501 196 -16 7 -93 40 -170 73 -77 33 -178 77 -225 99 -47
21 -123 56 -170 78 -332 152 -877 447 -1195 647 -89 55 -454 296 -470 309 -5
5 -62 46 -126 93 -102 73 -296 220 -354 267 -11 9 -40 33 -65 54 -327 267
-618 547 -920 884 -75 84 -312 386 -393 500 -303 430 -520 849 -670 1290 -62
181 -128 435 -152 580 -3 19 -7 46 -10 60 -7 37 -13 79 -21 135 -3 28 -8 57
-9 65 -26 140 -27 722 -1 910 3 19 8 56 11 82 3 25 14 95 25 155 11 59 22 122
25 138 18 97 124 470 154 540 5 11 30 76 56 145 137 356 315 680 615 1114 155
224 426 540 690 805 112 112 173 171 331 316 95 88 371 314 534 437 231 176
558 400 765 524 36 21 67 41 70 44 3 3 16 11 30 19 56 32 140 81 225 131 85
49 146 83 340 187 160 86 773 383 790 383 2 0 32 13 67 29 35 16 88 39 118 51
30 12 78 32 108 46 29 13 58 24 65 24 7 0 17 4 22 8 6 5 26 15 45 22 19 7 49
19 65 26 216 92 969 354 1190 414 17 5 68 20 115 34 226 66 424 120 615 167
66 16 140 35 165 42 25 6 47 12 50 13 3 0 23 4 45 9 22 5 42 10 45 10 3 1 19
4 35 8 34 8 43 10 140 32 39 8 83 18 99 21 16 2 32 7 35 9 4 2 26 6 51 10 25
4 47 8 50 10 3 2 23 6 45 9 22 4 47 8 55 11 8 2 26 6 40 9 14 2 97 18 185 34
88 17 183 34 210 38 28 5 52 9 55 9 3 1 28 5 55 10 28 4 59 9 70 11 24 5 54
10 115 19 25 4 52 9 60 10 8 2 38 6 65 9 28 4 61 8 75 11 14 2 43 7 65 10 22
3 67 10 100 15 33 5 85 11 116 15 31 3 65 7 75 9 11 2 48 7 84 11 36 3 76 8
90 10 57 8 204 23 285 30 33 3 76 7 95 10 19 2 69 7 110 10 41 4 95 8 120 10
25 3 81 7 125 10 44 3 105 7 135 10 110 8 384 23 540 30 47 2 245 6 440 9 439
8 491 11 599 42 329 93 583 351 673 681 27 102 34 327 13 426 -36 166 -116
334 -209 436 -49 54 -140 141 -148 141 -4 0 -13 6 -20 13 -50 48 -191 117
-318 155 -83 25 -92 25 -432 27 -192 1 -349 1 -350 0z"/>
</g>
</svg>
